<svg width="400" height="68" viewBox="0 0 400 68" fill="none" xmlns="http://www.w3.org/2000/svg">
<path d="M381.201 34C381.201 33.6768 381 12.7894 381 0H391V60H0V51.4236H364.065L366.074 50.9722L367.54 50.0694L369.006 48.7153C372.59 44.8032 379.857 36.8889 380.247 36.5278C380.736 36.0764 381.201 34.3232 381.201 34Z" fill="#067C3F"/>
<path d="M390.5 40.6111C390.5 40.273 391 13.3796 391 0H400V68H0V59.0278H372.5L374.5 58.5556L376 57.6111L377.5 56.1944C381.167 52.1018 388.6 43.8222 389 43.4444C389.5 42.9722 390.5 40.9493 390.5 40.6111Z" fill="#D9D9D9"/>
</svg>
