<svg width="400" height="68" viewBox="0 0 400 68" fill="none" xmlns="http://www.w3.org/2000/svg">
<g clip-path="url(#clip0_354_5)">
<path d="M381.201 34C381.201 34.3232 381 55.2106 381 68H391V8H0V16.5764H364.065L366.074 17.0278L367.54 17.9306L369.006 19.2847C372.59 23.1968 379.857 31.1111 380.247 31.4722C380.736 31.9236 381.201 33.6768 381.201 34Z" fill="#067C3F"/>
<path d="M390.5 27.3889C390.5 27.727 391 54.6204 391 68H400V0H0V8.9722H372.5L374.5 9.4444L376 10.3889L377.5 11.8056C381.167 15.8982 388.6 24.1778 389 24.5556C389.5 25.0278 390.5 27.0507 390.5 27.3889Z" fill="#D9D9D9"/>
</g>
<defs>
<clipPath id="clip0_354_5">
<rect width="400" height="68" fill="white" transform="matrix(-1 0 0 -1 400 68)"/>
</clipPath>
</defs>
</svg>
