<svg width="400" height="68" viewBox="0 0 400 68" fill="none" xmlns="http://www.w3.org/2000/svg">
<g clip-path="url(#clip0_354_2)">
<path d="M18.799 34C18.799 33.6768 19 12.7894 19 0H9V60H400V51.4236H35.935L33.926 50.9722L32.46 50.0694L30.994 48.7153C27.41 44.8032 20.143 36.8889 19.753 36.5278C19.264 36.0764 18.799 34.3232 18.799 34Z" fill="#067C3F"/>
<path d="M9.5 40.6111C9.5 40.273 9 13.3796 9 0H0V68H400V59.0278H27.5L25.5 58.5556L24 57.6111L22.5 56.1944C18.833 52.1018 11.4 43.8222 11 43.4444C10.5 42.9722 9.5 40.9493 9.5 40.6111Z" fill="#D9D9D9"/>
</g>
<defs>
<clipPath id="clip0_354_2">
<rect width="400" height="68" fill="white"/>
</clipPath>
</defs>
</svg>
