<svg width="55" height="55" viewBox="0 0 323 373" fill="none" xmlns="http://www.w3.org/2000/svg">
<path d="M131.501 95.9193L161.339 126.21M161.339 126.21V247.825L131.501 277.211M161.339 126.21V81M214.235 95.4672L186.657 142.938M252.663 133.896L205.193 161.474M267.13 186.339H211.974M253.115 239.235L205.193 211.657M214.687 278.115L187.109 230.193M76.3445 143.842H118.842M118.842 143.842L156.366 181.366M118.842 143.842L86.7427 111.743M118.842 143.842V101.344M86.7427 260.935L118.842 229.288M118.842 229.288H76.3445M118.842 229.288V271.786M118.842 229.288L156.366 191.764M56 186.339H101.21M101.21 186.339L70.9193 156.501M101.21 186.339L70.9193 216.63M101.21 186.339H156.366M161.339 292.13V246.92M207.453 186.791C207.453 212.109 187.109 232.453 161.791 232.453C161.791 232.453 161.791 232.453 161.339 232.453V141.129C161.791 141.129 161.791 141.129 161.791 141.129C187.109 141.129 207.453 161.474 207.453 186.791Z" stroke="#0459A9" stroke-width="10.0796"/>
<path fill-rule="evenodd" clip-rule="evenodd" d="M161.357 10L237.762 54.3057L314.167 98.1593V186.319V274.93L237.762 318.784L161.357 363.089L85.4047 318.784L9 274.93V186.319V98.1593L85.4047 54.3057L161.357 10Z" stroke="#0459A9" stroke-width="16.7993"/>
</svg>
